<svg width="51" height="50" viewBox="0 0 51 50" fill="none" xmlns="http://www.w3.org/2000/svg">
<g id="Group">
<path id="Vector" d="M25.5569 0H25.4431C11.6674 0 0.5 11.1674 0.5 24.9431V25.0569C0.5 38.8326 11.6674 50 25.4431 50H25.5569C39.3326 50 50.5 38.8326 50.5 25.0569V24.9431C50.5 11.1674 39.3326 0 25.5569 0Z" fill="url(#paint0_linear_5_745)"/>
<g id="Group_2">
<path id="Vector_2" d="M33.2365 10.1729L17.7651 10.1729C13.4909 10.1729 10.0137 13.6501 10.0137 17.9243V32.0784C10.0137 36.3526 13.4909 39.8299 17.7651 39.8299H33.2365C37.5108 39.8299 40.988 36.3526 40.988 32.0784V17.9243C40.988 13.6501 37.5108 10.1729 33.2365 10.1729ZM12.7481 17.9243C12.7481 15.1583 14.9991 12.9073 17.7651 12.9073L33.2365 12.9073C36.0025 12.9073 38.2535 15.1583 38.2535 17.9243V32.0784C38.2535 34.8444 36.0025 37.0954 33.2365 37.0954H17.7651C14.9991 37.0954 12.7481 34.8444 12.7481 32.0784V17.9243Z" fill="#FE6E3A"/>
<path id="Vector_3" d="M25.5012 32.2094C29.4759 32.2094 32.7114 28.9757 32.7114 24.9992C32.7114 21.0228 29.4777 17.7891 25.5012 17.7891C21.5247 17.7891 18.291 21.0228 18.291 24.9992C18.291 28.9757 21.5247 32.2094 25.5012 32.2094ZM25.5012 20.5253C27.9694 20.5253 29.9769 22.5328 29.9769 25.001C29.9769 27.4692 27.9694 29.4767 25.5012 29.4767C23.033 29.4767 21.0255 27.4692 21.0255 25.001C21.0255 22.5328 23.033 20.5253 25.5012 20.5253Z" fill="#FE6E3A"/>
<path id="Vector_4" d="M33.3782 18.9547C34.4485 18.9547 35.3209 18.0841 35.3209 17.012C35.3209 15.94 34.4503 15.0693 33.3782 15.0693C32.3062 15.0693 31.4355 15.94 31.4355 17.012C31.4355 18.0841 32.3062 18.9547 33.3782 18.9547Z" fill="#FE6E3A"/>
</g>
</g>
<defs>
<linearGradient id="paint0_linear_5_745" x1="25.5" y1="0" x2="25.5" y2="50" gradientUnits="userSpaceOnUse">
<stop stop-color="#171717" stop-opacity="0.5"/>
<stop offset="1" stop-color="#303030"/>
</linearGradient>
</defs>
</svg>
