<svg width="54" height="54" viewBox="0 0 54 54" fill="none" xmlns="http://www.w3.org/2000/svg">
<g id="ion:rocket-outline">
<path id="Vector" d="M48.7066 5.67502C48.6887 5.58847 48.6464 5.50883 48.5847 5.44549C48.5231 5.38215 48.4446 5.33774 48.3586 5.31748C42.6232 3.91475 29.3742 8.91291 22.1886 16.0932C20.908 17.3634 19.7403 18.7425 18.6987 20.2149C16.4838 20.0146 14.269 20.1833 12.3832 21.006C7.05807 23.3474 5.50873 29.4624 5.07631 32.0876C5.05288 32.2314 5.06289 32.3787 5.10556 32.5181C5.14822 32.6574 5.22241 32.7851 5.32235 32.8911C5.4223 32.9972 5.54533 33.0788 5.6819 33.1297C5.81847 33.1806 5.96493 33.1993 6.1099 33.1844L14.6603 32.2458C14.6661 32.8907 14.7048 33.5349 14.7763 34.1758C14.8209 34.6189 15.0186 35.0325 15.3353 35.3455L18.6459 38.6562C18.9592 38.9731 19.3732 39.1708 19.8166 39.2151C20.4537 39.2862 21.0941 39.3249 21.7351 39.3312L20.7975 47.8741C20.7828 48.0189 20.8017 48.1651 20.8526 48.3015C20.9035 48.4378 20.985 48.5606 21.0909 48.6604C21.1968 48.7602 21.3243 48.8344 21.4634 48.8771C21.6026 48.9197 21.7496 48.9299 21.8933 48.9067C24.5195 48.4848 30.6472 46.9355 32.9749 41.6114C33.7976 39.7235 33.9663 37.5203 33.7765 35.316C35.2533 34.2753 36.6363 33.1075 37.9098 31.826C45.1217 24.6541 50.0883 11.6962 48.7066 5.67502ZM31.4994 22.5353C30.8695 21.9055 30.4404 21.103 30.2666 20.2294C30.0927 19.3558 30.1819 18.4502 30.5227 17.6272C30.8635 16.8043 31.4407 16.1009 32.1814 15.606C32.922 15.1111 33.7927 14.8469 34.6835 14.8469C35.5743 14.8469 36.445 15.1111 37.1856 15.606C37.9262 16.1009 38.5035 16.8043 38.8443 17.6272C39.1851 18.4502 39.2743 19.3558 39.1004 20.2294C38.9266 21.103 38.4975 21.9055 37.8676 22.5353C37.4498 22.954 36.9535 23.2862 36.4071 23.5128C35.8607 23.7395 35.275 23.8561 34.6835 23.8561C34.092 23.8561 33.5063 23.7395 32.9599 23.5128C32.4135 23.2862 31.9172 22.954 31.4994 22.5353Z" stroke="#FE6E3A" stroke-width="3.375" stroke-linecap="round" stroke-linejoin="round"/>
<path id="Vector_2" d="M11.5636 37.125C10.5122 37.2541 9.53405 37.7307 8.78449 38.4792C6.92613 40.3439 6.75 47.25 6.75 47.25C6.75 47.25 13.6603 47.0739 15.5197 45.2134C16.2713 44.465 16.7487 43.4852 16.875 42.4322" stroke="#FE6E3A" stroke-width="3.375" stroke-linecap="round" stroke-linejoin="round"/>
</g>
</svg>
