<svg width="21" height="21" viewBox="0 0 21 21" fill="none" xmlns="http://www.w3.org/2000/svg">
<g id="Group">
<path id="Vector" d="M4.74875 20.1316V6.62513H0.263405V20.1316H4.74922H4.74875ZM2.50701 4.78137C4.07082 4.78137 5.04439 3.74423 5.04439 2.44811C5.01512 1.12245 4.07082 0.114258 2.53675 0.114258C1.00163 0.114258 -0.000976562 1.12245 -0.000976562 2.44799C-0.000976562 3.74412 0.972246 4.78125 2.47763 4.78125H2.50666L2.50701 4.78137ZM7.23145 20.1316H11.7164V12.5898C11.7164 12.1866 11.7457 11.7824 11.8642 11.4945C12.1883 10.6877 12.9263 9.85244 14.1657 9.85244C15.7882 9.85244 16.4377 11.0909 16.4377 12.9068V20.1316H20.9226V12.3874C20.9226 8.23896 18.7101 6.30848 15.7592 6.30848C13.3399 6.30848 12.2773 7.66191 11.6869 8.58373H11.7168V6.6256H7.23169C7.29023 7.89266 7.23133 20.132 7.23133 20.132L7.23145 20.1316Z" fill="#FE6E3A"/>
</g>
</svg>
